Coordinates
version=1
nRows=10
nColumns=63
inDegrees=yes

Units are S.I. units (second, meters, Newtons, ...)
If the header above contains a line with 'inDegrees', this indicates whether rotational values are in degrees (yes) or radians (no).

endheader
time	pelvis_tilt	pelvis_list	pelvis_rotation	pelvis_tx	pelvis_ty	pelvis_tz	hip_flexion_r	hip_adduction_r	hip_rotation_r	knee_angle_r	knee_angle_r_beta	ankle_angle_r	subtalar_angle_r	mtp_angle_r	hip_flexion_l	hip_adduction_l	hip_rotation_l	knee_angle_l	knee_angle_l_beta	ankle_angle_l	subtalar_angle_l	mtp_angle_l	L5_S1_Flex_Ext	L5_S1_Lat_Bending	L5_S1_axial_rotation	L4_L5_Flex_Ext	L4_L5_Lat_Bending	L4_L5_axial_rotation	L3_L4_Flex_Ext	L3_L4_Lat_Bending	L3_L4_axial_rotation	L2_L3_Flex_Ext	L2_L3_Lat_Bending	L2_L3_axial_rotation	L1_L2_Flex_Ext	L1_L2_Lat_Bending	L1_L2_axial_rotation	L1_T12_Flex_Ext	L1_T12_Lat_Bending	L1_T12_axial_rotation	Abs_r3	Abs_r2	Abs_r1	Abs_t1	Abs_t2	neck_flexion	neck_bending	neck_rotation	arm_flex_r	arm_add_r	arm_rot_r	elbow_flex_r	pro_sup_r	wrist_flex_r	wrist_dev_r	arm_flex_l	arm_add_l	arm_rot_l	elbow_flex_l	pro_sup_l	wrist_flex_l	wrist_dev_l
      1.26666667	    -15.92754187	     17.30340033	    -65.05850889	     -0.04238473	      0.96842445	     -0.81665750	     40.29248885	      5.41714912	    -30.35782121	     20.36476659	      0.35543223	     -7.51959272	    -14.55527824	      0.00000000	     26.74296610	     -6.86134788	     16.52446404	     41.71699606	      0.72809894	     21.86722443	    -14.76306165	      0.00000000	     -0.03122574	     -0.88964450	     -1.06987095	     -0.05798931	     -1.18322719	     -1.13673789	     -0.05130076	     -2.16308165	     -1.13673789	     -0.03568789	     -2.16308165	     -0.93613709	     -0.02899622	     -1.81416307	     -0.86927015	     -0.01784239	     -1.37805934	     -0.80240322	     -0.22304231	    -10.06383655	     -5.95030129	      0.00000000	      0.00000000	    -16.97264381	      8.39696027	     -7.46105011	    -34.31292014	    -36.06124771	    -80.01386612	    120.33236934	     89.99559364	      0.00000000	      0.00000000	     -5.08774466	    -49.32204943	    -14.04585244	     55.54936362	     89.99559364	      0.00000000	      0.00000000
      1.28333333	    -14.64119029	     16.06957734	    -66.13446701	     -0.03360479	      0.96635543	     -0.80113849	     38.28403957	      5.10933748	    -29.91896478	     23.20995954	      0.40509021	     -5.21530377	    -15.29747579	      0.00000000	     23.26832616	     -6.43806545	     15.55835587	     41.47636231	      0.72389908	     23.35213433	    -15.17937248	      0.00000000	     -0.02833890	     -0.67031022	     -1.30445742	     -0.05262818	     -0.89151259	     -1.38598601	     -0.04655798	     -1.62979227	     -1.38598601	     -0.03238853	     -1.62979227	     -1.14140024	     -0.02631551	     -1.36689660	     -1.05987165	     -0.01619285	     -1.03831053	     -0.97834306	     -0.20242196	     -7.58268326	     -7.25500082	      0.00000000	      0.00000000	    -17.67178589	      6.27311241	     -5.48215527	    -32.20929434	    -38.76300083	    -77.09046252	    118.25992679	     89.99559364	      0.00000000	      0.00000000	    -12.28342392	    -47.62271036	    -20.96173444	     56.65366075	     89.99559364	      0.00000000	      0.00000000
      1.30000000	    -13.29325820	     14.76528538	    -67.88708928	     -0.02596232	      0.96529010	     -0.78562977	     36.05018264	      5.06230424	    -28.56567356	     25.31832981	      0.44188822	     -3.03124170	    -15.05043414	      0.00000000	     19.58396194	     -6.06166047	     14.29049874	     41.24379784	      0.71984007	     24.49602733	    -15.26135730	      0.00000000	     -0.02684150	     -0.45220458	     -1.40116714	     -0.04984736	     -0.60143209	     -1.48874009	     -0.04409791	     -1.09949021	     -1.48874009	     -0.03067716	     -1.09949021	     -1.22602125	     -0.02492502	     -0.92213558	     -1.13844830	     -0.01533724	     -0.70046489	     -1.05087536	     -0.19172618	     -5.11542863	     -7.79287130	      0.00000000	      0.00000000	    -18.54068886	      4.09309244	     -3.38095797	    -29.52360150	    -41.47759736	    -74.46285562	    115.94294367	     89.99559364	      0.00000000	      0.00000000	    -17.57435275	    -46.23074586	    -25.80171356	     56.26144295	     89.99559364	      0.00000000	      0.00000000
      1.31666667	    -11.57688851	     13.54261925	    -70.04257239	     -0.01991605	      0.96538511	     -0.77044782	     33.86873537	      4.64258189	    -26.71139260	     27.26000484	      0.47577684	     -0.74143707	    -14.15574089	      0.00000000	     15.92952503	     -5.29909626	     12.63354789	     41.00867970	      0.71573648	     25.41450646	    -14.68735349	      0.00000000	     -0.02570514	     -0.29276364	     -1.22443480	     -0.04773701	     -0.38937564	     -1.30096198	     -0.04223097	     -0.71182551	     -1.30096198	     -0.02937840	     -0.71182551	     -1.07138045	     -0.02386979	     -0.59700361	     -0.99485328	     -0.01468792	     -0.45349088	     -0.91832610	     -0.18360923	     -3.31180084	     -6.80993903	      0.00000000	      0.00000000	    -19.78019441	      2.08099264	     -1.78906670	    -27.96574690	    -43.09130417	    -73.29376004	    113.73518530	     89.99559364	      0.00000000	      0.00000000	    -20.06826313	    -46.18629593	    -27.62604384	     54.85218916	     89.99559364	      0.00000000	      0.00000000
      1.33333333	     -9.65614622	     12.54589834	    -72.39011633	     -0.01542428	      0.96638761	     -0.75616654	     32.07026507	      3.92423501	    -24.07148584	     29.15036073	      0.50876977	      1.47706831	    -13.08117914	      0.00000000	     12.93158191	     -4.01825146	     11.18402552	     41.29593760	      0.72075008	     25.87355835	    -14.12603587	      0.00000000	     -0.02429042	     -0.18400324	     -0.71886064	     -0.04510974	     -0.24472431	     -0.76378943	     -0.03990674	     -0.44738548	     -0.76378943	     -0.02776152	     -0.44738548	     -0.62900306	     -0.02255609	     -0.37521941	     -0.58407427	     -0.01387955	     -0.28502102	     -0.53914548	     -0.17350406	     -2.08148147	     -3.99808721	      0.00000000	      0.00000000	    -20.56643404	      2.12631048	     -2.15971673	    -28.77895057	    -43.27123604	    -74.43991840	    111.86586436	     89.99559364	      0.00000000	      0.00000000	    -19.73016974	    -47.44744029	    -27.24887327	     53.23462507	     89.99559364	      0.00000000	      0.00000000
      1.35000000	     -7.27541407	     11.99798125	    -74.83042340	     -0.01268292	      0.96832516	     -0.74293998	     30.65803434	      2.57567116	    -21.54915949	     30.68060293	      0.53547754	      3.27592520	    -11.95867218	      0.00000000	     11.08520175	     -2.29451778	      8.95184026	     42.28622107	      0.73803379	     25.78232393	    -11.79461090	      0.00000000	     -0.02181138	     -0.17339172	      0.17369273	     -0.04050591	     -0.23061098	      0.18454852	     -0.03583392	     -0.42158462	      0.18454852	     -0.02492823	     -0.42158462	      0.15198114	     -0.02025405	     -0.35358039	      0.14112534	     -0.01246302	     -0.26858377	      0.13026955	     -0.15579650	     -1.96144176	      0.96602684	      0.00000000	      0.00000000	    -21.66730422	      4.23869836	     -5.74164528	    -32.28431756	    -41.11212648	    -78.40925375	    110.36339418	     89.99559364	      0.00000000	      0.00000000	    -15.80446350	    -50.86195767	    -22.31189164	     51.57943211	     89.99559364	      0.00000000	      0.00000000
      1.36666667	     -5.04633898	     11.69206838	    -77.01049071	     -0.00986493	      0.97042399	     -0.73036858	     29.49446040	      1.13243786	    -19.31669680	     31.73273161	      0.55384065	      4.98949829	    -10.91907316	      0.00000000	     10.53641964	     -0.42008129	      7.19024580	     44.36712998	      0.77435250	     25.15869314	    -10.06965313	      0.00000000	     -0.01877895	     -0.15729763	      1.13934876	     -0.03487439	     -0.20920585	      1.21055806	     -0.03085194	     -0.38245346	      1.21055806	     -0.02146246	     -0.38245346	      0.99693017	     -0.01743813	     -0.32076133	      0.92572087	     -0.01073029	     -0.24365403	      0.85451157	     -0.13413616	     -1.77938224	      6.33671600	      0.00000000	      0.00000000	    -22.04619239	      7.02442584	     -9.36623385	    -36.43382217	    -38.49989742	    -82.43689120	    108.90307283	     89.99559364	      0.00000000	      0.00000000	     -9.41690315	    -54.18407514	    -15.97950189	     49.78841319	     89.99559364	      0.00000000	      0.00000000
      1.38333333	     -3.02224606	     11.34530261	    -79.74615498	     -0.00669657	      0.97280456	     -0.71651139	     27.92617890	     -0.08519884	    -17.74208872	     31.87625461	      0.55634560	      6.90621152	     -8.89596533	      0.00000000	     10.61028265	      1.25700386	      4.93780486	     47.04538820	      0.82109692	     24.02137017	     -9.05752767	      0.00000000	     -0.01276704	     -0.09874754	      2.16652148	     -0.02370968	     -0.13133422	      2.30192907	     -0.02097498	     -0.24009476	      2.30192907	     -0.01459146	     -0.24009476	      1.89570629	     -0.01185548	     -0.20136598	      1.76029870	     -0.00729509	     -0.15295993	      1.62489111	     -0.09119372	     -1.11705188	     12.04954250	      0.00000000	      0.00000000	    -22.24431230	      9.70494786	    -12.46735206	    -40.39959959	    -36.44642809	    -85.41352741	    107.52178577	     89.99559364	      0.00000000	      0.00000000	     -0.94461691	    -56.91176814	     -7.50020653	     46.84539204	     89.99559364	      0.00000000	      0.00000000
      1.40000000	     -1.35791951	     10.75761185	    -83.06991049	     -0.00261841	      0.97544945	     -0.70092211	     25.75356808	     -1.17631713	    -17.35048533	     31.25973860	      0.54558536	      9.22367922	     -4.71024160	      0.00000000	     10.90293780	      2.56849428	      2.17450934	     49.87612302	      0.87050256	     22.50300826	     -9.34520273	      0.00000000	     -0.00561552	      0.04309787	      3.11769550	     -0.01042858	      0.05732016	      3.31255147	     -0.00922573	      0.10478815	      3.31255147	     -0.00641797	      0.10478815	      2.72798356	     -0.00521457	      0.08788517	      2.53312759	     -0.00320871	      0.06675859	      2.33827163	     -0.04011107	      0.48753167	     17.33968706	      0.00000000	      0.00000000	    -22.73123855	     10.96413763	    -14.00572116	    -43.81168351	    -35.76129147	    -87.10774265	    106.31661146	     89.99559364	      0.00000000	      0.00000000	      8.39856478	    -58.43428002	      2.09738152	     42.14590953	     89.99559364	      0.00000000	      0.00000000
      1.41666667	     -0.35773943	     10.10857172	    -86.34054999	      0.00255571	      0.97827175	     -0.68510837	     23.47692772	     -1.84191235	    -17.14979062	     30.15804616	      0.52635720	     10.73471249	     -0.78432213	      0.00000000	     11.61868668	      3.20261017	     -0.70378243	     52.63928658	      0.91872887	     20.84581200	    -10.84843797	      0.00000000	      0.00052932	      0.29185300	      3.75878498	      0.00098301	      0.38816449	      3.99370904	      0.00086962	      0.70961139	      3.99370904	      0.00060496	      0.70961139	      3.28893686	      0.00049153	      0.59514664	      3.05401279	      0.00030246	      0.45208030	      2.81908873	      0.00378090	      3.30149953	     20.90523441	      0.00000000	      0.00000000	    -23.41299175	     10.58858703	    -13.58385704	    -46.17415524	    -36.88621602	    -87.69710188	    105.09355898	     89.99559364	      0.00000000	      0.00000000	     14.26029774	    -57.56494878	      3.06167057	     36.81897624	     89.99559364	      0.00000000	      0.00000000
